<svg xmlns="http://www.w3.org/2000/svg" xmlns:xlink="http://www.w3.org/1999/xlink" version="1.1" x="0px" y="0px" viewBox="0 0 100 125" enable-background="new 0 0 100 100" xml:space="preserve"><g><path d="M17.5,48.75h7c3.446,0,6.25-2.804,6.25-6.25V12.75c0-3.446-2.804-6.25-6.25-6.25h-7c-3.446,0-6.25,2.804-6.25,6.25V42.5   C11.25,45.946,14.054,48.75,17.5,48.75z M24.5,46.25h-7c-2.068,0-3.75-1.682-3.75-3.75V18.75h14.5V42.5   C28.25,44.568,26.568,46.25,24.5,46.25z M17.5,9h7c2.068,0,3.75,1.682,3.75,3.75v3.5h-14.5v-3.5C13.75,10.682,15.432,9,17.5,9z"/><path d="M91.877,50.262l0.103-1.345H11.25v7.445h19.797c1.583,2.811,4.029,5.296,7.129,7.335v10.387h-4.259v11.333H48.75v6.125H8.5   v2.5h83.25v-2.5h-19.5V68.269C83.293,65.365,91.252,58.484,91.877,50.262z M13.75,51.417h75.453   c-0.163,0.835-0.416,1.651-0.754,2.445H13.75V51.417z M33.988,56.362h53.073c-4.44,6.433-14.678,10.888-26.56,10.888   C48.84,67.25,38.549,62.943,33.988,56.362z M40.676,65.165c2.43,1.287,5.146,2.336,8.074,3.103v5.816h-8.074V65.165z    M36.417,82.917v-6.333H48.75v6.333H36.417z M69.75,91.542h-18.5V68.84c2.942,0.587,6.049,0.91,9.251,0.91   c3.217,0,6.322-0.318,9.249-0.904V91.542z"/><path d="M33.167,47.183h56.5c0.69,0,1.25-0.56,1.25-1.25s-0.56-1.25-1.25-1.25h-56.5c-0.69,0-1.25,0.56-1.25,1.25   S32.477,47.183,33.167,47.183z"/></g><text x="0" y="115" fill="#000000" font-size="5px" font-weight="bold" font-family="'Helvetica Neue', Helvetica, Arial-Unicode, Arial, Sans-serif">Created by Creative Mania</text><text x="0" y="120" fill="#000000" font-size="5px" font-weight="bold" font-family="'Helvetica Neue', Helvetica, Arial-Unicode, Arial, Sans-serif">from the Noun Project</text></svg>